<svg width="133" height="56" viewBox="0 0 133 56" fill="none" xmlns="http://www.w3.org/2000/svg">
    <path d="M6.0022 36.6341L6.0022 15.1962C6.0022 8.19101 12.7221 2.51243 21.0111 2.51243L36.0132 2.51243C38.0961 2.51243 40.1667 2.7779 42.1558 3.30027C44.0527 3.79825 46.0251 4.0632 48.0119 4.08637L81.8169 4.48228C84.863 4.518 87.9068 4.35357 90.9224 3.98984L91.2568 3.94987C90.7366 2.9086 89.8654 1.15293 89.8045 0.946539C89.8007 0.933925 89.7984 0.921117 89.7984 0.908053C89.7984 0.614657 90.7237 0.226017 91.7289 0.650891C92.5841 1.01212 94.1932 2.85628 94.7605 3.52777L99.0632 3.00912C101.81 2.67834 104.58 2.51243 107.355 2.51243H113.257C123.978 2.51243 132.668 9.85647 132.668 18.9155V32.915C132.668 41.9743 123.978 49.3185 113.257 49.3185H107.355C104.58 49.3185 101.81 49.1519 99.0632 48.8211L94.7605 48.303C94.1932 48.9743 92.5841 50.8187 91.7289 51.1797C90.7237 51.6045 89.7984 51.2157 89.7984 50.9229C89.7984 50.9094 89.8007 50.8965 89.8045 50.8843C89.8654 50.6771 90.7366 48.9215 91.2568 47.8809L90.9224 47.8403C87.9068 47.4773 84.863 47.3126 81.8169 47.348L48.0119 47.7438C46.0251 47.7669 44.0527 48.0321 42.1558 48.5302C40.1667 49.0528 38.0961 49.3185 36.0132 49.3185H21.0111C12.7221 49.3185 6.0022 43.6392 6.0022 36.6341Z" fill="#AEC2BB"/>
    <path d="M93.3909 6.91643C96.1369 6.58532 98.9081 6.41942 101.682 6.41942H107.584C118.304 6.41942 126.995 13.7634 126.995 22.8227V29.8223V36.822C126.995 45.8811 118.304 53.2253 107.584 53.2253H101.682C98.9081 53.2253 96.1369 53.0593 93.3909 52.7285L85.2494 51.7477C82.2337 51.3841 79.1899 51.2194 76.1438 51.2554L42.3389 51.6512C40.352 51.6744 38.3797 51.9389 36.4827 52.4376C34.4936 52.9596 32.423 53.2253 30.3402 53.2253H15.3373C7.04884 53.2253 0.328369 47.5466 0.328369 40.5416L0.328369 29.8223L0.328369 19.1035C0.328369 12.0983 7.04884 6.41942 15.3373 6.41942H30.3402C32.423 6.41942 34.4936 6.68488 36.4827 7.20725C38.3797 7.70549 40.352 7.97025 42.3389 7.99335L76.1438 8.38927C79.1899 8.42524 82.2337 8.26056 85.2494 7.89734L93.3909 6.91643Z" fill="#E5E0E9"/>
    <path d="M91.7163 51.4388C94.3085 51.7509 96.9229 51.9079 99.541 51.9079H105.111C115.228 51.9079 123.429 44.9775 123.429 36.4278V29.8223V23.2169C123.429 14.6677 115.228 7.73711 105.111 7.73711H99.541C96.9229 7.73711 94.3085 7.89375 91.7163 8.20619L84.034 9.13181C81.1882 9.4747 78.3157 9.62986 75.4409 9.59614L43.539 9.22256C41.6649 9.20074 39.803 8.95085 38.0134 8.48073C36.1362 7.98777 34.1822 7.73711 32.2167 7.73711H18.0592C10.2359 7.73711 3.89478 13.0962 3.89478 19.7067L3.89478 29.8223V39.9379C3.89478 46.5484 10.2359 51.9079 18.0592 51.9079H32.2167C34.1822 51.9079 36.1362 51.657 38.0134 51.164C39.803 50.6936 41.6649 50.4439 43.539 50.422L75.4409 50.0481C78.3157 50.0146 81.1882 50.1697 84.034 50.5127L91.7163 51.4388Z" fill="#FDFDFE"/>
    <path d="M89.2923 7.68007C89.2923 7.68007 87.106 5.00154 86.0558 4.55781C85.0065 4.11434 84.0439 4.55781 84.1307 4.85346C84.219 5.1493 85.9683 8.62377 85.9683 8.62377L89.2923 7.68007Z" fill="#E5E0E9"/>
    <path d="M89.2923 51.9645C89.2923 51.9645 87.106 54.643 86.0558 55.087C85.0065 55.5305 84.0439 55.0871 84.1307 54.791C84.219 54.4956 85.9683 51.0211 85.9683 51.0211L89.2923 51.9645Z" fill="#E5E0E9"/>
    <path d="M122.979 18.5951C123.454 18.7615 123.971 18.8055 124.479 18.751C123.059 15.7637 120.577 13.2355 117.426 11.4982C118.511 12.5904 119.413 13.8127 120.083 15.1217C120.768 16.4578 121.386 18.0373 122.979 18.5951Z" fill="#6C9ED1"/>
    <path d="M122.979 41.0499C123.454 40.8832 123.971 40.8395 124.479 40.8942C123.059 43.8809 120.577 46.4094 117.426 48.1464C118.511 47.0543 119.413 45.8321 120.083 44.5232C120.768 43.1865 121.386 41.6072 122.979 41.0499Z" fill="#6C9ED1"/>
    <path d="M57.3325 13.7579C63.9639 13.6885 70.0394 13.5498 72.2722 13.5498C78.9637 13.5498 85.263 9.33597 85.263 9.33597H59.3125C58.5746 10.7822 57.9585 12.2719 57.3325 13.7579Z" fill="#3F4045"/>
    <path d="M40.8394 13.6395C45.0484 13.8155 50.8482 13.8187 56.3768 13.7672C56.865 12.2747 57.3958 10.7938 58.0164 9.33597H38.334C39.1039 10.7981 39.9332 12.2363 40.8394 13.6395Z" fill="#3F4045"/>
    <path d="M36.8925 9.33597H30.0212C30.0212 9.33597 30.153 12.9954 39.075 13.5498C39.318 13.5648 39.5723 13.5789 39.832 13.5922C38.8001 12.196 37.7416 10.8129 36.8925 9.33597Z" fill="#3F4045"/>
    <path d="M57.3325 45.8868C63.9639 45.9563 70.0394 46.0947 72.2722 46.0947C78.9637 46.0947 85.263 50.3086 85.263 50.3086H59.3125C58.5746 48.8626 57.9585 47.3728 57.3325 45.8868Z" fill="#3F4045"/>
    <path d="M40.8394 46.0053C45.0484 45.8289 50.8482 45.8257 56.3768 45.8772C56.865 47.3696 57.3958 48.851 58.0164 50.3087H38.334C39.1039 48.8465 39.9332 47.4082 40.8394 46.0053Z" fill="#3F4045"/>
    <path d="M36.8925 50.3087H30.0212C30.0212 50.3087 30.153 46.6494 39.075 46.0947C39.318 46.0799 39.5723 46.0657 39.832 46.0522C38.8001 47.4487 37.7416 48.8317 36.8925 50.3087Z" fill="#3F4045"/>
    <path d="M35.1379 43.9878C35.1379 43.9878 31.5953 38.0561 31.5953 29.8223C31.5953 21.5889 35.1379 15.6566 35.1379 15.6566C31.2085 14.498 25.9417 14.051 23.1073 13.8861C21.8493 13.813 20.6627 14.3851 20.1032 15.3407C18.6485 17.8253 16.1125 23.1199 16.1125 29.8223C16.1125 36.5251 18.6485 41.819 20.1032 44.3044C20.6627 45.2594 21.8493 45.8315 23.1073 45.7582C25.9417 45.5941 31.2085 45.1468 35.1379 43.9878ZM89.6214 48.037C87.4716 47.7847 83.1629 46.9494 78.7612 44.1892C78.1497 43.8056 77.8261 43.1762 77.8916 42.5353C78.1071 40.4058 78.5709 35.2038 78.5709 29.8223C78.5709 24.4406 78.1071 19.2389 77.8916 17.1094C77.8261 16.4683 78.1497 15.8389 78.7612 15.4558C83.1629 12.6953 87.4716 11.8602 89.6214 11.6073C90.536 11.4999 91.4376 11.8707 91.8801 12.5548C93.1069 14.4507 95.2346 19.2625 95.2346 29.8223C95.2346 40.3819 93.1069 45.1938 91.8801 47.0903C91.4376 47.7744 90.536 48.1445 89.6214 48.037Z" fill="#3F4045"/>
    <path d="M3.91091 14.5281C4.41482 13.1239 5.31349 11.8219 6.51229 10.7598C6.82436 10.483 7.16256 10.2146 7.35827 9.86987C7.49306 9.63182 7.5386 9.34422 7.45559 9.09613C5.04696 10.5846 3.37099 12.8657 2.96045 15.4856L2.99228 15.4884C3.51408 15.4743 3.75769 14.9507 3.91091 14.5281Z" fill="#EF3725"/>
    <path d="M3.91091 45.1165C4.41482 46.5208 5.31349 47.8227 6.51229 48.8852C6.82436 49.1619 7.16256 49.4296 7.35827 49.7746C7.49306 50.0127 7.5386 50.3003 7.45559 50.5488C5.04696 49.0602 3.37099 46.7788 2.96045 44.1589L2.99228 44.1563C3.51408 44.1705 3.75769 44.6937 3.91091 45.1165Z" fill="#EF3725"/>
</svg>
